<svg xmlns="http://www.w3.org/2000/svg" viewBox="0 0 841.9 595.3">
  <g fill="#61DAFB">
    <path d="M666.3 296.5c0 45.7-19.2 87.2-50 116.5 31.2 29.3 50.5 70.8 50.5 116.5 0 88.4-71.6 160-160 160-45.7 0-87.2-19.2-116.5-50 29.3-31.2 70.8-50.5 116.5-50.5 88.4 0 160-71.6 160-160 0-45.7-19.2-87.2-50-116.5 31.2-29.3 50.5-70.8 50.5-116.5 0-88.4-71.6-160-160-160-45.7 0-87.2 19.2-116.5 50 29.3 31.2 70.8 50.5 116.5 50.5 88.4 0 160 71.6 160 160z"/>
    <circle cx="420.9" cy="296.5" r="45.7"/>
    <path d="M520.5 78.1c-31.2-29.3-70.8-50.5-116.5-50.5-88.4 0-160 71.6-160 160 0 45.7 19.2 87.2 50 116.5-31.2 29.3-50.5 70.8-50.5 116.5 0 88.4 71.6 160 160 160 45.7 0 87.2-19.2 116.5-50-29.3-31.2-70.8-50.5-116.5-50.5-88.4 0-160-71.6-160-160 0-45.7 19.2-87.2 50-116.5-31.2-29.3-50.5-70.8-50.5-116.5 0-88.4 71.6-160 160-160 45.7 0 87.2 19.2 116.5 50-29.3 31.2-70.8 50.5-116.5 50.5-88.4 0-160 71.6-160 160 0 45.7 19.2 87.2 50 116.5-31.2 29.3-50.5 70.8-50.5 116.5 0 88.4 71.6 160 160 160 45.7 0 87.2-19.2 116.5-50-29.3-31.2-70.8-50.5-116.5-50.5-88.4 0-160-71.6-160-160 0-45.7 19.2-87.2 50-116.5-31.2-29.3-50.5-70.8-50.5-116.5 0-88.4 71.6-160 160-160 45.7 0 87.2 19.2 116.5 50-29.3 31.2-70.8 50.5-116.5 50.5-88.4 0-160 71.6-160 160 0 45.7 19.2 87.2 50 116.5-31.2 29.3-50.5 70.8-50.5 116.5 0 88.4 71.6 160 160 160 45.7 0 87.2-19.2 116.5-50-29.3-31.2-70.8-50.5-116.5-50.5-88.4 0-160-71.6-160-160 0-45.7 19.2-87.2 50-116.5-31.2-29.3-50.5-70.8-50.5-116.5 0-88.4 71.6-160 160-160 45.7 0 87.2 19.2 116.5 50-29.3 31.2-70.8 50.5-116.5 50.5-88.4 0-160 71.6-160 160 0 45.7 19.2 87.2 50 116.5-31.2 29.3-50.5 70.8-50.5 116.5 0 88.4 71.6 160 160 160 45.7 0 87.2-19.2 116.5-50-29.3-31.2-70.8-50.5-116.5-50.5-88.4 0-160-71.6-160-160 0-45.7 19.2-87.2 50-116.5-31.2-29.3-50.5-70.8-50.5-116.5 0-88.4 71.6-160 160-160 45.7 0 87.2 19.2 116.5 50-29.3 31.2-70.8 50.5-116.5 50.5-88.4 0-160 71.6-160 160 0 45.7 19.2 87.2 50 116.5-31.2 29.3-50.5 70.8-50.5 116.5-50.5 88.4 0 160 71.6 160 160z"/>
  </g>
</svg>